<?xml version="1.0" encoding="UTF-8" standalone="no"?>
<!DOCTYPE svg PUBLIC "-//W3C//DTD SVG 1.1//EN"
 "http://www.w3.org/Graphics/SVG/1.1/DTD/svg11.dtd">
<!-- Generated by graphviz version 2.43.0 (0)
 -->
<!-- Title: %3 Pages: 1 -->
<svg width="4130pt" height="1153pt"
 viewBox="0.00 0.00 4129.50 1153.00" xmlns="http://www.w3.org/2000/svg" xmlns:xlink="http://www.w3.org/1999/xlink">
<g id="graph0" class="graph" transform="scale(1 1) rotate(0) translate(4 1149)">
<title>%3</title>
<polygon fill="white" stroke="transparent" points="-4,4 -4,-1149 4125.5,-1149 4125.5,4 -4,4"/>
<!-- 1 -->
<g id="node1" class="node">
<title>1</title>
<polygon fill="#ff0000" stroke="#ff0000" points="1937.5,-1145 1887.5,-1145 1887.5,-1104 1937.5,-1104 1937.5,-1145"/>
<text text-anchor="middle" x="1912.5" y="-1133" font-family="Arial" font-size="10.00" fill="#ffffff">main</text>
<text text-anchor="middle" x="1912.5" y="-1122" font-family="Arial" font-size="10.00" fill="#ffffff">99.98%</text>
<text text-anchor="middle" x="1912.5" y="-1111" font-family="Arial" font-size="10.00" fill="#ffffff">(0.00%)</text>
</g>
<!-- 2 -->
<g id="node2" class="node">
<title>2</title>
<polygon fill="#fe0400" stroke="#fe0400" points="2092,-1064 1733,-1064 1733,-1012 2092,-1012 2092,-1064"/>
<text text-anchor="middle" x="1912.5" y="-1052" font-family="Arial" font-size="10.00" fill="#ffffff">batchExecuteRadianceSimulation(Scene*, RadianceMethod*, RenderOptions*)</text>
<text text-anchor="middle" x="1912.5" y="-1041" font-family="Arial" font-size="10.00" fill="#ffffff">99.61%</text>
<text text-anchor="middle" x="1912.5" y="-1030" font-family="Arial" font-size="10.00" fill="#ffffff">(0.00%)</text>
<text text-anchor="middle" x="1912.5" y="-1019" font-family="Arial" font-size="10.00" fill="#ffffff">1×</text>
</g>
<!-- 1&#45;&gt;2 -->
<g id="edge1" class="edge">
<title>1&#45;&gt;2</title>
<path fill="none" stroke="#fe0400" stroke-width="3.98" d="M1912.5,-1103.9C1912.5,-1095.14 1912.5,-1084.55 1912.5,-1074.47"/>
<polygon fill="#fe0400" stroke="#fe0400" stroke-width="3.98" points="1916,-1074.27 1912.5,-1064.27 1909,-1074.27 1916,-1074.27"/>
<text text-anchor="middle" x="1929.5" y="-1087" font-family="Arial" font-size="10.00" fill="#fe0400">99.61%</text>
<text text-anchor="middle" x="1929.5" y="-1076" font-family="Arial" font-size="10.00" fill="#fe0400">1×</text>
</g>
<!-- 3 -->
<g id="node3" class="node">
<title>3</title>
<polygon fill="#fd0c00" stroke="#fd0c00" points="2050,-972 1775,-972 1775,-920 2050,-920 2050,-972"/>
<text text-anchor="middle" x="1912.5" y="-960" font-family="Arial" font-size="10.00" fill="#ffffff">GalerkinRadianceMethod::doStep(Scene*, RenderOptions*)</text>
<text text-anchor="middle" x="1912.5" y="-949" font-family="Arial" font-size="10.00" fill="#ffffff">98.87%</text>
<text text-anchor="middle" x="1912.5" y="-938" font-family="Arial" font-size="10.00" fill="#ffffff">(0.00%)</text>
<text text-anchor="middle" x="1912.5" y="-927" font-family="Arial" font-size="10.00" fill="#ffffff">11×</text>
</g>
<!-- 2&#45;&gt;3 -->
<g id="edge2" class="edge">
<title>2&#45;&gt;3</title>
<path fill="none" stroke="#fd0c00" stroke-width="3.95" d="M1912.5,-1011.93C1912.5,-1002.74 1912.5,-992.17 1912.5,-982.25"/>
<polygon fill="#fd0c00" stroke="#fd0c00" stroke-width="3.95" points="1915.97,-982.15 1912.5,-972.25 1909.04,-982.15 1915.97,-982.15"/>
<text text-anchor="middle" x="1929.5" y="-995" font-family="Arial" font-size="10.00" fill="#fd0c00">98.87%</text>
<text text-anchor="middle" x="1929.5" y="-984" font-family="Arial" font-size="10.00" fill="#fd0c00">11×</text>
</g>
<!-- 4 -->
<g id="node4" class="node">
<title>4</title>
<polygon fill="#fd0c00" stroke="#fd0c00" points="2119,-880 1706,-880 1706,-828 2119,-828 2119,-880"/>
<text text-anchor="middle" x="1912.5" y="-868" font-family="Arial" font-size="10.00" fill="#ffffff">GatheringClusteredStrategy::doGatheringIteration(Scene*, GalerkinState*, RenderOptions*)</text>
<text text-anchor="middle" x="1912.5" y="-857" font-family="Arial" font-size="10.00" fill="#ffffff">98.87%</text>
<text text-anchor="middle" x="1912.5" y="-846" font-family="Arial" font-size="10.00" fill="#ffffff">(0.00%)</text>
<text text-anchor="middle" x="1912.5" y="-835" font-family="Arial" font-size="10.00" fill="#ffffff">11×</text>
</g>
<!-- 3&#45;&gt;4 -->
<g id="edge3" class="edge">
<title>3&#45;&gt;4</title>
<path fill="none" stroke="#fd0c00" stroke-width="3.95" d="M1912.5,-919.93C1912.5,-910.74 1912.5,-900.17 1912.5,-890.25"/>
<polygon fill="#fd0c00" stroke="#fd0c00" stroke-width="3.95" points="1915.97,-890.15 1912.5,-880.25 1909.04,-890.15 1915.97,-890.15"/>
<text text-anchor="middle" x="1929.5" y="-903" font-family="Arial" font-size="10.00" fill="#fd0c00">98.87%</text>
<text text-anchor="middle" x="1929.5" y="-892" font-family="Arial" font-size="10.00" fill="#fd0c00">11×</text>
</g>
<!-- 5 -->
<g id="node5" class="node">
<title>5</title>
<polygon fill="#fd0e00" stroke="#fd0e00" points="2162.5,-788 1662.5,-788 1662.5,-736 2162.5,-736 2162.5,-788"/>
<text text-anchor="middle" x="1912.5" y="-776" font-family="Arial" font-size="10.00" fill="#ffffff">HierarchicalRefinementStrategy::refineInteractions(Scene*, GalerkinElement*, GalerkinState*, RenderOptions*)</text>
<text text-anchor="middle" x="1912.5" y="-765" font-family="Arial" font-size="10.00" fill="#ffffff">98.61%</text>
<text text-anchor="middle" x="1912.5" y="-754" font-family="Arial" font-size="10.00" fill="#ffffff">(1.03%)</text>
<text text-anchor="middle" x="1912.5" y="-743" font-family="Arial" font-size="10.00" fill="#ffffff">1147190×</text>
</g>
<!-- 4&#45;&gt;5 -->
<g id="edge4" class="edge">
<title>4&#45;&gt;5</title>
<path fill="none" stroke="#fd0e00" stroke-width="3.94" d="M1912.5,-827.93C1912.5,-818.74 1912.5,-808.17 1912.5,-798.25"/>
<polygon fill="#fd0e00" stroke="#fd0e00" stroke-width="3.94" points="1915.97,-798.15 1912.5,-788.25 1909.04,-798.15 1915.97,-798.15"/>
<text text-anchor="middle" x="1929.5" y="-811" font-family="Arial" font-size="10.00" fill="#fd0e00">98.61%</text>
<text text-anchor="middle" x="1929.5" y="-800" font-family="Arial" font-size="10.00" fill="#fd0e00">11×</text>
</g>
<!-- 5&#45;&gt;5 -->
<g id="edge5" class="edge">
<title>5&#45;&gt;5</title>
<path fill="none" stroke="#fd0e00" stroke-width="3.94" d="M2162.97,-765.97C2163.14,-765.94 2163.31,-765.9 2163.48,-765.87"/>
<polygon fill="#fd0e00" stroke="#fd0e00" stroke-width="3.94" points="2167.07,-767.68 2162.97,-758.03 2160.15,-768.13 2167.07,-767.68"/>
<text text-anchor="middle" x="2193" y="-759.5" font-family="Arial" font-size="10.00" fill="#fd0e00">1147179×</text>
</g>
<!-- 11 -->
<g id="node6" class="node">
<title>11</title>
<polygon fill="#fb1901" stroke="#fb1901" points="2213.5,-696 1611.5,-696 1611.5,-644 2213.5,-644 2213.5,-696"/>
<text text-anchor="middle" x="1912.5" y="-684" font-family="Arial" font-size="10.00" fill="#ffffff">HierarchicalRefinementStrategy::refineRecursive(Scene*, java::ArrayList&lt;Geometry*&gt;**, Interaction*, GalerkinState*, RenderOptions*)</text>
<text text-anchor="middle" x="1912.5" y="-673" font-family="Arial" font-size="10.00" fill="#ffffff">97.54%</text>
<text text-anchor="middle" x="1912.5" y="-662" font-family="Arial" font-size="10.00" fill="#ffffff">(0.88%)</text>
<text text-anchor="middle" x="1912.5" y="-651" font-family="Arial" font-size="10.00" fill="#ffffff">36043049×</text>
</g>
<!-- 5&#45;&gt;11 -->
<g id="edge6" class="edge">
<title>5&#45;&gt;11</title>
<path fill="none" stroke="#fb1901" stroke-width="3.9" d="M1912.5,-735.93C1912.5,-726.74 1912.5,-716.17 1912.5,-706.25"/>
<polygon fill="#fb1901" stroke="#fb1901" stroke-width="3.9" points="1915.97,-706.15 1912.5,-696.25 1909.04,-706.15 1915.97,-706.15"/>
<text text-anchor="middle" x="1937" y="-719" font-family="Arial" font-size="10.00" fill="#fb1901">97.54%</text>
<text text-anchor="middle" x="1937" y="-708" font-family="Arial" font-size="10.00" fill="#fb1901">31257749×</text>
</g>
<!-- 12 -->
<g id="node15" class="node">
<title>12</title>
<polygon fill="#0c8190" stroke="#0c8190" points="3067,-604 2304,-604 2304,-552 3067,-552 3067,-604"/>
<text text-anchor="middle" x="2685.5" y="-592" font-family="Arial" font-size="10.00" fill="#ffffff">HierarchicalRefinementStrategy::hierarchicRefinementSubdivideReceiverCluster(Scene*, java::ArrayList&lt;Geometry*&gt;**, Interaction*, bool, GalerkinState*, RenderOptions*)</text>
<text text-anchor="middle" x="2685.5" y="-581" font-family="Arial" font-size="10.00" fill="#ffffff">22.28%</text>
<text text-anchor="middle" x="2685.5" y="-570" font-family="Arial" font-size="10.00" fill="#ffffff">(0.04%)</text>
<text text-anchor="middle" x="2685.5" y="-559" font-family="Arial" font-size="10.00" fill="#ffffff">365466×</text>
</g>
<!-- 11&#45;&gt;12 -->
<g id="edge15" class="edge">
<title>11&#45;&gt;12</title>
<path fill="none" stroke="#0c8190" stroke-width="0.89" d="M2127.31,-643.99C2232.85,-631.7 2359.84,-616.92 2466,-604.56"/>
<polygon fill="#0c8190" stroke="#0c8190" stroke-width="0.89" points="2466.25,-606.18 2470.72,-604.01 2465.86,-602.92 2466.25,-606.18"/>
<text text-anchor="middle" x="2410.5" y="-627" font-family="Arial" font-size="10.00" fill="#0c8190">22.28%</text>
<text text-anchor="middle" x="2410.5" y="-616" font-family="Arial" font-size="10.00" fill="#0c8190">365466×</text>
</g>
<!-- 13 -->
<g id="node16" class="node">
<title>13</title>
<polygon fill="#0c788e" stroke="#0c788e" points="3632.5,-604 3076.5,-604 3076.5,-552 3632.5,-552 3632.5,-604"/>
<text text-anchor="middle" x="3354.5" y="-592" font-family="Arial" font-size="10.00" fill="#ffffff">HierarchicalRefinementStrategy::hierarchicRefinementApproximationError(Interaction*, ColorRgb, ColorRgb, GalerkinState*)</text>
<text text-anchor="middle" x="3354.5" y="-581" font-family="Arial" font-size="10.00" fill="#ffffff">20.79%</text>
<text text-anchor="middle" x="3354.5" y="-570" font-family="Arial" font-size="10.00" fill="#ffffff">(0.88%)</text>
<text text-anchor="middle" x="3354.5" y="-559" font-family="Arial" font-size="10.00" fill="#ffffff">36043049×</text>
</g>
<!-- 11&#45;&gt;13 -->
<g id="edge16" class="edge">
<title>11&#45;&gt;13</title>
<path fill="none" stroke="#0c788e" stroke-width="0.83" d="M2213.8,-655.43C2447.86,-644.09 2780.5,-626.21 3071.5,-604 3071.6,-603.99 3071.7,-603.98 3071.8,-603.98"/>
<polygon fill="#0c788e" stroke="#0c788e" stroke-width="0.83" points="3071.85,-605.59 3076.31,-603.63 3071.6,-602.38 3071.85,-605.59"/>
<text text-anchor="middle" x="2971" y="-627" font-family="Arial" font-size="10.00" fill="#0c788e">20.79%</text>
<text text-anchor="middle" x="2971" y="-616" font-family="Arial" font-size="10.00" fill="#0c788e">36043049×</text>
</g>
<!-- 15 -->
<g id="node17" class="node">
<title>15</title>
<polygon fill="#0c6f8c" stroke="#0c6f8c" points="757,-604 0,-604 0,-552 757,-552 757,-604"/>
<text text-anchor="middle" x="378.5" y="-592" font-family="Arial" font-size="10.00" fill="#ffffff">HierarchicalRefinementStrategy::hierarchicRefinementRegularSubdivideSource(Scene*, java::ArrayList&lt;Geometry*&gt;**, Interaction*, bool, GalerkinState*, RenderOptions*)</text>
<text text-anchor="middle" x="378.5" y="-581" font-family="Arial" font-size="10.00" fill="#ffffff">19.38%</text>
<text text-anchor="middle" x="378.5" y="-570" font-family="Arial" font-size="10.00" fill="#ffffff">(0.06%)</text>
<text text-anchor="middle" x="378.5" y="-559" font-family="Arial" font-size="10.00" fill="#ffffff">337937×</text>
</g>
<!-- 11&#45;&gt;15 -->
<g id="edge17" class="edge">
<title>11&#45;&gt;15</title>
<path fill="none" stroke="#0c6f8c" stroke-width="0.78" d="M1611.43,-658.34C1463.74,-652.53 1283.24,-644.57 1121.5,-635 978.25,-626.52 819.63,-614.88 685.86,-604.4"/>
<polygon fill="#0c6f8c" stroke="#0c6f8c" stroke-width="0.78" points="685.61,-602.84 681.11,-604.03 685.37,-605.91 685.61,-602.84"/>
<text text-anchor="middle" x="1140.5" y="-627" font-family="Arial" font-size="10.00" fill="#0c6f8c">19.38%</text>
<text text-anchor="middle" x="1140.5" y="-616" font-family="Arial" font-size="10.00" fill="#0c6f8c">337937×</text>
</g>
<!-- 17 -->
<g id="node18" class="node">
<title>17</title>
<polygon fill="#0c6e8c" stroke="#0c6e8c" points="2295,-604 1530,-604 1530,-552 2295,-552 2295,-604"/>
<text text-anchor="middle" x="1912.5" y="-592" font-family="Arial" font-size="10.00" fill="#ffffff">HierarchicalRefinementStrategy::hierarchicRefinementRegularSubdivideReceiver(Scene*, java::ArrayList&lt;Geometry*&gt;**, Interaction*, bool, GalerkinState*, RenderOptions*)</text>
<text text-anchor="middle" x="1912.5" y="-581" font-family="Arial" font-size="10.00" fill="#ffffff">19.20%</text>
<text text-anchor="middle" x="1912.5" y="-570" font-family="Arial" font-size="10.00" fill="#ffffff">(0.02%)</text>
<text text-anchor="middle" x="1912.5" y="-559" font-family="Arial" font-size="10.00" fill="#ffffff">335495×</text>
</g>
<!-- 11&#45;&gt;17 -->
<g id="edge18" class="edge">
<title>11&#45;&gt;17</title>
<path fill="none" stroke="#0c6e8c" stroke-width="0.77" d="M1893.2,-643.84C1891.7,-640.97 1890.42,-638 1889.5,-635 1886.63,-625.65 1886.63,-622.35 1889.5,-613 1889.99,-611.41 1890.58,-609.82 1891.25,-608.26"/>
<polygon fill="#0c6e8c" stroke="#0c6e8c" stroke-width="0.77" points="1892.7,-608.8 1893.2,-604.16 1889.91,-607.48 1892.7,-608.8"/>
<text text-anchor="middle" x="1908.5" y="-627" font-family="Arial" font-size="10.00" fill="#0c6e8c">19.20%</text>
<text text-anchor="middle" x="1908.5" y="-616" font-family="Arial" font-size="10.00" fill="#0c6e8c">335495×</text>
</g>
<!-- 25 -->
<g id="node19" class="node">
<title>25</title>
<polygon fill="#0d4c84" stroke="#0d4c84" points="1521,-604 766,-604 766,-552 1521,-552 1521,-604"/>
<text text-anchor="middle" x="1143.5" y="-592" font-family="Arial" font-size="10.00" fill="#ffffff">HierarchicalRefinementStrategy::hierarchicRefinementSubdivideSourceCluster(Scene*, java::ArrayList&lt;Geometry*&gt;**, Interaction*, bool, GalerkinState*, RenderOptions*)</text>
<text text-anchor="middle" x="1143.5" y="-581" font-family="Arial" font-size="10.00" fill="#ffffff">13.22%</text>
<text text-anchor="middle" x="1143.5" y="-570" font-family="Arial" font-size="10.00" fill="#ffffff">(0.02%)</text>
<text text-anchor="middle" x="1143.5" y="-559" font-family="Arial" font-size="10.00" fill="#ffffff">213416×</text>
</g>
<!-- 11&#45;&gt;25 -->
<g id="edge19" class="edge">
<title>11&#45;&gt;25</title>
<path fill="none" stroke="#0d4c84" stroke-width="0.53" d="M1698.8,-643.99C1593.49,-631.66 1466.73,-616.83 1360.92,-604.45"/>
<polygon fill="#0d4c84" stroke="#0d4c84" stroke-width="0.53" points="1360.89,-603.17 1357.16,-604.01 1360.59,-605.68 1360.89,-603.17"/>
<text text-anchor="middle" x="1638.5" y="-627" font-family="Arial" font-size="10.00" fill="#0d4c84">13.22%</text>
<text text-anchor="middle" x="1638.5" y="-616" font-family="Arial" font-size="10.00" fill="#0d4c84">213416×</text>
</g>
<!-- 29 -->
<g id="node20" class="node">
<title>29</title>
<polygon fill="#0d1475" stroke="#0d1475" points="4121.5,-604 3641.5,-604 3641.5,-552 4121.5,-552 4121.5,-604"/>
<text text-anchor="middle" x="3881.5" y="-592" font-family="Arial" font-size="10.00" fill="#ffffff">HierarchicalRefinementStrategy::hierarchicRefinementComputeLightTransport(Interaction*, GalerkinState*)</text>
<text text-anchor="middle" x="3881.5" y="-581" font-family="Arial" font-size="10.00" fill="#ffffff">1.72%</text>
<text text-anchor="middle" x="3881.5" y="-570" font-family="Arial" font-size="10.00" fill="#ffffff">(0.81%)</text>
<text text-anchor="middle" x="3881.5" y="-559" font-family="Arial" font-size="10.00" fill="#ffffff">34790735×</text>
</g>
<!-- 11&#45;&gt;29 -->
<g id="edge20" class="edge">
<title>11&#45;&gt;29</title>
<path fill="none" stroke="#0d1475" stroke-width="0.5" d="M2213.6,-664.51C2558.16,-657.77 3139.18,-641.57 3637.5,-604 3637.66,-603.99 3637.82,-603.98 3637.98,-603.96"/>
<polygon fill="#0d1475" stroke="#0d1475" stroke-width="0.5" points="3637.94,-605.2 3641.33,-603.71 3637.75,-602.75 3637.94,-605.2"/>
<text text-anchor="middle" x="3523" y="-627" font-family="Arial" font-size="10.00" fill="#0d1475">1.72%</text>
<text text-anchor="middle" x="3523" y="-616" font-family="Arial" font-size="10.00" fill="#0d1475">34790735×</text>
</g>
<!-- 7 -->
<g id="node7" class="node">
<title>7</title>
<polygon fill="#2fbd09" stroke="#2fbd09" points="1504,-512 809,-512 809,-460 1504,-460 1504,-512"/>
<text text-anchor="middle" x="1156.5" y="-500" font-family="Arial" font-size="10.00" fill="#ffffff">FormFactorStrategy::computeAreaToAreaFormFactorVisibility(VoxelGrid const*, java::ArrayList&lt;Geometry*&gt; const*, bool, bool, Interaction*, GalerkinState*)</text>
<text text-anchor="middle" x="1156.5" y="-489" font-family="Arial" font-size="10.00" fill="#ffffff">55.32%</text>
<text text-anchor="middle" x="1156.5" y="-478" font-family="Arial" font-size="10.00" fill="#ffffff">(1.91%)</text>
<text text-anchor="middle" x="1156.5" y="-467" font-family="Arial" font-size="10.00" fill="#ffffff">5230404×</text>
</g>
<!-- 8 -->
<g id="node8" class="node">
<title>8</title>
<polygon fill="#19b909" stroke="#19b909" points="1482.5,-420 882.5,-420 882.5,-368 1482.5,-368 1482.5,-420"/>
<text text-anchor="middle" x="1182.5" y="-408" font-family="Arial" font-size="10.00" fill="#ffffff">FormFactorStrategy::shadowTestDiscretization(Ray*, java::ArrayList&lt;Geometry*&gt; const*, VoxelGrid const*, float, RayHit*, bool, bool)</text>
<text text-anchor="middle" x="1182.5" y="-397" font-family="Arial" font-size="10.00" fill="#ffffff">52.17%</text>
<text text-anchor="middle" x="1182.5" y="-386" font-family="Arial" font-size="10.00" fill="#ffffff">(0.78%)</text>
<text text-anchor="middle" x="1182.5" y="-375" font-family="Arial" font-size="10.00" fill="#ffffff">240342020×</text>
</g>
<!-- 7&#45;&gt;8 -->
<g id="edge7" class="edge">
<title>7&#45;&gt;8</title>
<path fill="none" stroke="#19b909" stroke-width="2.09" d="M1163.74,-459.93C1166.65,-449.87 1170.03,-438.15 1173.12,-427.45"/>
<polygon fill="#19b909" stroke="#19b909" stroke-width="2.09" points="1175.63,-427.86 1175.21,-420.25 1170.79,-426.47 1175.63,-427.86"/>
<text text-anchor="middle" x="1200.5" y="-443" font-family="Arial" font-size="10.00" fill="#19b909">52.17%</text>
<text text-anchor="middle" x="1200.5" y="-432" font-family="Arial" font-size="10.00" fill="#19b909">240342020×</text>
</g>
<!-- 30 -->
<g id="node9" class="node">
<title>30</title>
<polygon fill="#0d1274" stroke="#0d1274" points="1026.5,-52 936.5,-52 936.5,0 1026.5,0 1026.5,-52"/>
<text text-anchor="middle" x="981.5" y="-40" font-family="Arial" font-size="10.00" fill="#ffffff">RayHit::RayHit()</text>
<text text-anchor="middle" x="981.5" y="-29" font-family="Arial" font-size="10.00" fill="#ffffff">1.17%</text>
<text text-anchor="middle" x="981.5" y="-18" font-family="Arial" font-size="10.00" fill="#ffffff">(1.17%)</text>
<text text-anchor="middle" x="981.5" y="-7" font-family="Arial" font-size="10.00" fill="#ffffff">2678469104×</text>
</g>
<!-- 7&#45;&gt;30 -->
<g id="edge8" class="edge">
<title>7&#45;&gt;30</title>
<path fill="none" stroke="#0d0d73" stroke-width="0.5" d="M904.8,-459.97C841.17,-446.6 790.5,-426.16 790.5,-395 790.5,-395 790.5,-395 790.5,-117 790.5,-54.23 875.96,-35.16 932.55,-29.42"/>
<polygon fill="#0d0d73" stroke="#0d0d73" stroke-width="0.5" points="932.87,-30.62 936.24,-29.06 932.63,-28.18 932.87,-30.62"/>
<text text-anchor="middle" x="817.5" y="-259" font-family="Arial" font-size="10.00" fill="#0d0d73">0.10%</text>
<text text-anchor="middle" x="817.5" y="-248" font-family="Arial" font-size="10.00" fill="#0d0d73">240342020×</text>
</g>
<!-- 9 -->
<g id="node10" class="node">
<title>9</title>
<polygon fill="#0ab318" stroke="#0ab318" points="1416,-328 949,-328 949,-276 1416,-276 1416,-328"/>
<text text-anchor="middle" x="1182.5" y="-316" font-family="Arial" font-size="10.00" fill="#ffffff">geometryListDiscretizationIntersect(java::ArrayList&lt;Geometry*&gt; const*, Ray*, float, float*, int, RayHit*)</text>
<text text-anchor="middle" x="1182.5" y="-305" font-family="Arial" font-size="10.00" fill="#ffffff">47.94%</text>
<text text-anchor="middle" x="1182.5" y="-294" font-family="Arial" font-size="10.00" fill="#ffffff">(8.11%)</text>
<text text-anchor="middle" x="1182.5" y="-283" font-family="Arial" font-size="10.00" fill="#ffffff">307100832×</text>
</g>
<!-- 8&#45;&gt;9 -->
<g id="edge9" class="edge">
<title>8&#45;&gt;9</title>
<path fill="none" stroke="#0ab318" stroke-width="1.92" d="M1182.5,-367.93C1182.5,-357.87 1182.5,-346.15 1182.5,-335.45"/>
<polygon fill="#0ab318" stroke="#0ab318" stroke-width="1.92" points="1184.92,-335.15 1182.5,-328.25 1180.09,-335.15 1184.92,-335.15"/>
<text text-anchor="middle" x="1209.5" y="-351" font-family="Arial" font-size="10.00" fill="#0ab318">47.94%</text>
<text text-anchor="middle" x="1209.5" y="-340" font-family="Arial" font-size="10.00" fill="#0ab318">187495415×</text>
</g>
<!-- 21 -->
<g id="node11" class="node">
<title>21</title>
<polygon fill="#0c5e88" stroke="#0c5e88" points="1449.5,-144 1225.5,-144 1225.5,-92 1449.5,-92 1449.5,-144"/>
<text text-anchor="middle" x="1337.5" y="-132" font-family="Arial" font-size="10.00" fill="#ffffff">Patch::intersect(Ray*, float, float*, int, RayHit*)</text>
<text text-anchor="middle" x="1337.5" y="-121" font-family="Arial" font-size="10.00" fill="#ffffff">16.52%</text>
<text text-anchor="middle" x="1337.5" y="-110" font-family="Arial" font-size="10.00" fill="#ffffff">(9.10%)</text>
<text text-anchor="middle" x="1337.5" y="-99" font-family="Arial" font-size="10.00" fill="#ffffff">2331798887×</text>
</g>
<!-- 8&#45;&gt;21 -->
<g id="edge10" class="edge">
<title>8&#45;&gt;21</title>
<path fill="none" stroke="#0d1b77" stroke-width="0.5" d="M1365.03,-367.98C1419.28,-357.69 1469.98,-344.31 1491.5,-328 1528.25,-300.14 1528.52,-280.79 1539.5,-236 1545,-213.55 1553.11,-202.68 1539.5,-184 1519.09,-155.99 1486.4,-139.79 1453.22,-130.5"/>
<polygon fill="#0d1b77" stroke="#0d1b77" stroke-width="0.5" points="1453.29,-129.25 1449.59,-129.51 1452.64,-131.61 1453.29,-129.25"/>
<text text-anchor="middle" x="1564.5" y="-259" font-family="Arial" font-size="10.00" fill="#0d1b77">3.45%</text>
<text text-anchor="middle" x="1564.5" y="-248" font-family="Arial" font-size="10.00" fill="#0d1b77">487499715×</text>
</g>
<!-- 9&#45;&gt;9 -->
<g id="edge11" class="edge">
<title>9&#45;&gt;9</title>
<path fill="none" stroke="#0ab318" stroke-width="1.92" d="M1416.08,-306.17C1421.8,-305.01 1425,-303.62 1425,-302 1425,-301.29 1424.39,-300.63 1423.22,-300.01"/>
<polygon fill="#0ab318" stroke="#0ab318" stroke-width="1.92" points="1423.39,-297.53 1416.08,-297.83 1421.98,-302.15 1423.39,-297.53"/>
<text text-anchor="middle" x="1451.5" y="-299.5" font-family="Arial" font-size="10.00" fill="#0ab318">119605417×</text>
</g>
<!-- 10 -->
<g id="node12" class="node">
<title>10</title>
<polygon fill="#0c9492" stroke="#0c9492" points="1130.5,-236 804.5,-236 804.5,-184 1130.5,-184 1130.5,-236"/>
<text text-anchor="middle" x="967.5" y="-224" font-family="Arial" font-size="10.00" fill="#ffffff">Geometry::discretizationIntersect(Ray*, float, float*, int, RayHit*) const</text>
<text text-anchor="middle" x="967.5" y="-213" font-family="Arial" font-size="10.00" fill="#ffffff">25.38%</text>
<text text-anchor="middle" x="967.5" y="-202" font-family="Arial" font-size="10.00" fill="#ffffff">(11.48%)</text>
<text text-anchor="middle" x="967.5" y="-191" font-family="Arial" font-size="10.00" fill="#ffffff">2364549668×</text>
</g>
<!-- 9&#45;&gt;10 -->
<g id="edge12" class="edge">
<title>9&#45;&gt;10</title>
<path fill="none" stroke="#0c9492" stroke-width="1.02" d="M1122.61,-275.93C1094.54,-264.18 1061.04,-250.16 1032.37,-238.15"/>
<polygon fill="#0c9492" stroke="#0c9492" stroke-width="1.02" points="1032.73,-236.41 1027.44,-236.09 1031.38,-239.64 1032.73,-236.41"/>
<text text-anchor="middle" x="1131" y="-259" font-family="Arial" font-size="10.00" fill="#0c9492">25.38%</text>
<text text-anchor="middle" x="1131" y="-248" font-family="Arial" font-size="10.00" fill="#0c9492">2364549668×</text>
</g>
<!-- 22 -->
<g id="node13" class="node">
<title>22</title>
<polygon fill="#0c5185" stroke="#0c5185" points="1535,-236 1140,-236 1140,-184 1535,-184 1535,-236"/>
<text text-anchor="middle" x="1337.5" y="-224" font-family="Arial" font-size="10.00" fill="#ffffff">Geometry::patchListIntersect(java::ArrayList&lt;Patch*&gt;*, Ray*, float, float*, int, RayHit*)</text>
<text text-anchor="middle" x="1337.5" y="-213" font-family="Arial" font-size="10.00" fill="#ffffff">14.27%</text>
<text text-anchor="middle" x="1337.5" y="-202" font-family="Arial" font-size="10.00" fill="#ffffff">(1.21%)</text>
<text text-anchor="middle" x="1337.5" y="-191" font-family="Arial" font-size="10.00" fill="#ffffff">225730161×</text>
</g>
<!-- 9&#45;&gt;22 -->
<g id="edge13" class="edge">
<title>9&#45;&gt;22</title>
<path fill="none" stroke="#0c5185" stroke-width="0.57" d="M1225.68,-275.93C1246,-264.13 1270.27,-250.04 1290.99,-238"/>
<polygon fill="#0c5185" stroke="#0c5185" stroke-width="0.57" points="1291.67,-239.15 1294.29,-236.09 1290.33,-236.85 1291.67,-239.15"/>
<text text-anchor="middle" x="1305.5" y="-259" font-family="Arial" font-size="10.00" fill="#0c5185">14.27%</text>
<text text-anchor="middle" x="1305.5" y="-248" font-family="Arial" font-size="10.00" fill="#0c5185">225730161×</text>
</g>
<!-- 21&#45;&gt;30 -->
<g id="edge41" class="edge">
<title>21&#45;&gt;30</title>
<path fill="none" stroke="#0d1174" stroke-width="0.5" d="M1238.33,-91.93C1170.49,-74.78 1083.5,-52.79 1030.17,-39.3"/>
<polygon fill="#0d1174" stroke="#0d1174" stroke-width="0.5" points="1030.4,-38.1 1026.7,-38.43 1029.8,-40.47 1030.4,-38.1"/>
<text text-anchor="middle" x="1232" y="-75" font-family="Arial" font-size="10.00" fill="#0d1174">1.02%</text>
<text text-anchor="middle" x="1232" y="-64" font-family="Arial" font-size="10.00" fill="#0d1174">2331798887×</text>
</g>
<!-- 27 -->
<g id="node28" class="node">
<title>27</title>
<polygon fill="#0d297b" stroke="#0d297b" points="1449,-52 1226,-52 1226,0 1449,0 1449,-52"/>
<text text-anchor="middle" x="1337.5" y="-40" font-family="Arial" font-size="10.00" fill="#ffffff">Patch::quadUv(Patch*, Vector3D*, Vector2Dd*)</text>
<text text-anchor="middle" x="1337.5" y="-29" font-family="Arial" font-size="10.00" fill="#ffffff">6.35%</text>
<text text-anchor="middle" x="1337.5" y="-18" font-family="Arial" font-size="10.00" fill="#ffffff">(6.35%)</text>
<text text-anchor="middle" x="1337.5" y="-7" font-family="Arial" font-size="10.00" fill="#ffffff">818052146×</text>
</g>
<!-- 21&#45;&gt;27 -->
<g id="edge40" class="edge">
<title>21&#45;&gt;27</title>
<path fill="none" stroke="#0d297b" stroke-width="0.5" d="M1337.5,-91.93C1337.5,-80.71 1337.5,-67.42 1337.5,-55.8"/>
<polygon fill="#0d297b" stroke="#0d297b" stroke-width="0.5" points="1338.73,-55.75 1337.5,-52.25 1336.28,-55.75 1338.73,-55.75"/>
<text text-anchor="middle" x="1364.5" y="-75" font-family="Arial" font-size="10.00" fill="#0d297b">6.32%</text>
<text text-anchor="middle" x="1364.5" y="-64" font-family="Arial" font-size="10.00" fill="#0d297b">815149822×</text>
</g>
<!-- 23 -->
<g id="node14" class="node">
<title>23</title>
<polygon fill="#0d4f85" stroke="#0d4f85" points="1080.5,-144 854.5,-144 854.5,-92 1080.5,-92 1080.5,-144"/>
<text text-anchor="middle" x="967.5" y="-132" font-family="Arial" font-size="10.00" fill="#ffffff">BoundingBox::intersect(Ray*, float, float*) const</text>
<text text-anchor="middle" x="967.5" y="-121" font-family="Arial" font-size="10.00" fill="#ffffff">13.90%</text>
<text text-anchor="middle" x="967.5" y="-110" font-family="Arial" font-size="10.00" fill="#ffffff">(13.90%)</text>
<text text-anchor="middle" x="967.5" y="-99" font-family="Arial" font-size="10.00" fill="#ffffff">2180752567×</text>
</g>
<!-- 10&#45;&gt;23 -->
<g id="edge14" class="edge">
<title>10&#45;&gt;23</title>
<path fill="none" stroke="#0d4f85" stroke-width="0.56" d="M967.5,-183.93C967.5,-172.81 967.5,-159.65 967.5,-148.1"/>
<polygon fill="#0d4f85" stroke="#0d4f85" stroke-width="0.56" points="968.8,-147.95 967.5,-144.25 966.21,-147.95 968.8,-147.95"/>
<text text-anchor="middle" x="997" y="-167" font-family="Arial" font-size="10.00" fill="#0d4f85">13.90%</text>
<text text-anchor="middle" x="997" y="-156" font-family="Arial" font-size="10.00" fill="#0d4f85">2180752567×</text>
</g>
<!-- 22&#45;&gt;21 -->
<g id="edge42" class="edge">
<title>22&#45;&gt;21</title>
<path fill="none" stroke="#0d4b84" stroke-width="0.52" d="M1337.5,-183.93C1337.5,-172.81 1337.5,-159.65 1337.5,-148.1"/>
<polygon fill="#0d4b84" stroke="#0d4b84" stroke-width="0.52" points="1338.76,-147.85 1337.5,-144.25 1336.24,-147.85 1338.76,-147.85"/>
<text text-anchor="middle" x="1367" y="-167" font-family="Arial" font-size="10.00" fill="#0d4b84">13.06%</text>
<text text-anchor="middle" x="1367" y="-156" font-family="Arial" font-size="10.00" fill="#0d4b84">1843661640×</text>
</g>
<!-- 12&#45;&gt;11 -->
<g id="edge22" class="edge">
<title>12&#45;&gt;11</title>
<path fill="none" stroke="#0c8190" stroke-width="0.89" d="M2588.43,-604.02C2541.36,-615.23 2483.81,-627.56 2431.5,-635 2362.97,-644.74 2288.94,-651.7 2218.85,-656.66"/>
<polygon fill="#0c8190" stroke="#0c8190" stroke-width="0.89" points="2218.39,-655.05 2213.81,-657.02 2218.62,-658.33 2218.39,-655.05"/>
<text text-anchor="middle" x="2566" y="-621.5" font-family="Arial" font-size="10.00" fill="#0c8190">1337230×</text>
</g>
<!-- 12&#45;&gt;7 -->
<g id="edge21" class="edge">
<title>12&#45;&gt;7</title>
<path fill="none" stroke="#0c6089" stroke-width="0.67" d="M2303.78,-552.24C2302.35,-552.16 2300.92,-552.08 2299.5,-552 2211.54,-547.15 2189.3,-550.18 2101.5,-543 2018.53,-536.22 1998.49,-527.48 1915.5,-521 1810.85,-512.83 1784.37,-516.51 1679.5,-512 1624.18,-509.62 1565.58,-506.96 1508.38,-504.29"/>
<polygon fill="#0c6089" stroke="#0c6089" stroke-width="0.67" points="1508.43,-502.85 1504.27,-504.09 1508.29,-505.72 1508.43,-502.85"/>
<text text-anchor="middle" x="2123" y="-535" font-family="Arial" font-size="10.00" fill="#0c6089">16.80%</text>
<text text-anchor="middle" x="2123" y="-524" font-family="Arial" font-size="10.00" fill="#0c6089">1588770×</text>
</g>
<!-- 18 -->
<g id="node21" class="node">
<title>18</title>
<polygon fill="#0c678a" stroke="#0c678a" points="1944.5,-512 1684.5,-512 1684.5,-460 1944.5,-460 1944.5,-512"/>
<text text-anchor="middle" x="1814.5" y="-500" font-family="Arial" font-size="10.00" fill="#ffffff">GatheringSimpleStrategy::patchUpdatePotential(Patch*)</text>
<text text-anchor="middle" x="1814.5" y="-489" font-family="Arial" font-size="10.00" fill="#ffffff">18.09%</text>
<text text-anchor="middle" x="1814.5" y="-478" font-family="Arial" font-size="10.00" fill="#ffffff">(0.01%)</text>
<text text-anchor="middle" x="1814.5" y="-467" font-family="Arial" font-size="10.00" fill="#ffffff">1252314×</text>
</g>
<!-- 12&#45;&gt;18 -->
<g id="edge23" class="edge">
<title>12&#45;&gt;18</title>
<path fill="none" stroke="#0d247a" stroke-width="0.5" d="M2443.46,-551.99C2283.56,-535.47 2080.01,-514.43 1948.49,-500.85"/>
<polygon fill="#0d247a" stroke="#0d247a" stroke-width="0.5" points="1948.23,-499.59 1944.62,-500.45 1947.98,-502.02 1948.23,-499.59"/>
<text text-anchor="middle" x="2373.5" y="-535" font-family="Arial" font-size="10.00" fill="#0d247a">5.28%</text>
<text text-anchor="middle" x="2373.5" y="-524" font-family="Arial" font-size="10.00" fill="#0d247a">365466×</text>
</g>
<!-- 14 -->
<g id="node22" class="node">
<title>14</title>
<polygon fill="#0c728d" stroke="#0c728d" points="3525.5,-512 3183.5,-512 3183.5,-460 3525.5,-460 3525.5,-512"/>
<text text-anchor="middle" x="3354.5" y="-500" font-family="Arial" font-size="10.00" fill="#ffffff">ClusterTraversalStrategy::maxRadiance(GalerkinElement*, GalerkinState*)</text>
<text text-anchor="middle" x="3354.5" y="-489" font-family="Arial" font-size="10.00" fill="#ffffff">19.84%</text>
<text text-anchor="middle" x="3354.5" y="-478" font-family="Arial" font-size="10.00" fill="#ffffff">(0.19%)</text>
<text text-anchor="middle" x="3354.5" y="-467" font-family="Arial" font-size="10.00" fill="#ffffff">7454720×</text>
</g>
<!-- 13&#45;&gt;14 -->
<g id="edge24" class="edge">
<title>13&#45;&gt;14</title>
<path fill="none" stroke="#0c728d" stroke-width="0.79" d="M3354.5,-551.93C3354.5,-541.1 3354.5,-528.34 3354.5,-517.01"/>
<polygon fill="#0c728d" stroke="#0c728d" stroke-width="0.79" points="3356.08,-516.75 3354.5,-512.25 3352.93,-516.75 3356.08,-516.75"/>
<text text-anchor="middle" x="3376" y="-535" font-family="Arial" font-size="10.00" fill="#0c728d">19.84%</text>
<text text-anchor="middle" x="3376" y="-524" font-family="Arial" font-size="10.00" fill="#0c728d">7454720×</text>
</g>
<!-- 15&#45;&gt;11 -->
<g id="edge27" class="edge">
<title>15&#45;&gt;11</title>
<path fill="none" stroke="#0c6f8c" stroke-width="0.78" d="M757.25,-603.81C758.67,-603.87 760.09,-603.94 761.5,-604 937.38,-611.74 981.75,-602.79 1157.5,-613 1262.22,-619.08 1287.93,-626.69 1392.5,-635 1461.78,-640.51 1536.29,-645.77 1606.67,-650.44"/>
<polygon fill="#0c6f8c" stroke="#0c6f8c" stroke-width="0.78" points="1606.81,-651.99 1611.3,-650.75 1607.01,-648.92 1606.81,-651.99"/>
<text text-anchor="middle" x="1414" y="-621.5" font-family="Arial" font-size="10.00" fill="#0c6f8c">1319321×</text>
</g>
<!-- 15&#45;&gt;7 -->
<g id="edge26" class="edge">
<title>15&#45;&gt;7</title>
<path fill="none" stroke="#0c5285" stroke-width="0.57" d="M594.7,-551.99C701.24,-539.66 829.49,-524.83 936.54,-512.45"/>
<polygon fill="#0c5285" stroke="#0c5285" stroke-width="0.57" points="936.71,-513.76 940.33,-512.01 936.41,-511.12 936.71,-513.76"/>
<text text-anchor="middle" x="882" y="-535" font-family="Arial" font-size="10.00" fill="#0c5285">14.30%</text>
<text text-anchor="middle" x="882" y="-524" font-family="Arial" font-size="10.00" fill="#0c5285">1351748×</text>
</g>
<!-- 15&#45;&gt;18 -->
<g id="edge28" class="edge">
<title>15&#45;&gt;18</title>
<path fill="none" stroke="#0d2279" stroke-width="0.5" d="M757.25,-552.17C758.67,-552.11 760.09,-552.05 761.5,-552 782.76,-551.18 1509.08,-553.65 1527.5,-543 1537.33,-537.31 1531,-527.23 1540.5,-521 1563.94,-505.64 1623.13,-497.21 1680.53,-492.6"/>
<polygon fill="#0d2279" stroke="#0d2279" stroke-width="0.5" points="1680.91,-493.8 1684.3,-492.3 1680.72,-491.35 1680.91,-493.8"/>
<text text-anchor="middle" x="1559.5" y="-535" font-family="Arial" font-size="10.00" fill="#0d2279">4.88%</text>
<text text-anchor="middle" x="1559.5" y="-524" font-family="Arial" font-size="10.00" fill="#0d2279">337937×</text>
</g>
<!-- 17&#45;&gt;11 -->
<g id="edge31" class="edge">
<title>17&#45;&gt;11</title>
<path fill="none" stroke="#0c6e8c" stroke-width="0.77" d="M1923.33,-604.33C1924.21,-607.21 1924.97,-610.14 1925.5,-613 1927.28,-622.62 1927.28,-625.38 1925.5,-635 1925.24,-636.43 1924.91,-637.88 1924.55,-639.33"/>
<polygon fill="#0c6e8c" stroke="#0c6e8c" stroke-width="0.77" points="1923.04,-639.02 1923.33,-643.67 1926,-639.85 1923.04,-639.02"/>
<text text-anchor="middle" x="1949" y="-621.5" font-family="Arial" font-size="10.00" fill="#0c6e8c">1316573×</text>
</g>
<!-- 17&#45;&gt;7 -->
<g id="edge30" class="edge">
<title>17&#45;&gt;7</title>
<path fill="none" stroke="#0c5185" stroke-width="0.57" d="M1566.69,-551.99C1539.53,-549.24 1512.54,-546.24 1486.5,-543 1422.17,-534.99 1351.25,-523.33 1291.69,-512.72"/>
<polygon fill="#0c5185" stroke="#0c5185" stroke-width="0.57" points="1291.76,-511.38 1287.78,-512.02 1291.29,-514 1291.76,-511.38"/>
<text text-anchor="middle" x="1508" y="-535" font-family="Arial" font-size="10.00" fill="#0c5185">14.19%</text>
<text text-anchor="middle" x="1508" y="-524" font-family="Arial" font-size="10.00" fill="#0c5185">1341980×</text>
</g>
<!-- 17&#45;&gt;18 -->
<g id="edge32" class="edge">
<title>17&#45;&gt;18</title>
<path fill="none" stroke="#0d2279" stroke-width="0.5" d="M1885.2,-551.93C1872.67,-540.42 1857.77,-526.73 1844.88,-514.9"/>
<polygon fill="#0d2279" stroke="#0d2279" stroke-width="0.5" points="1845.4,-513.71 1841.99,-512.25 1843.74,-515.52 1845.4,-513.71"/>
<text text-anchor="middle" x="1894.5" y="-535" font-family="Arial" font-size="10.00" fill="#0d2279">4.85%</text>
<text text-anchor="middle" x="1894.5" y="-524" font-family="Arial" font-size="10.00" fill="#0d2279">335495×</text>
</g>
<!-- 25&#45;&gt;11 -->
<g id="edge46" class="edge">
<title>25&#45;&gt;11</title>
<path fill="none" stroke="#0d4c84" stroke-width="0.53" d="M1521.33,-603.77C1599.17,-608.9 1658.3,-612.83 1659.5,-613 1710.28,-620.25 1766.02,-632.15 1812.23,-643.12"/>
<polygon fill="#0d4c84" stroke="#0d4c84" stroke-width="0.53" points="1812.02,-644.37 1815.82,-643.98 1812.61,-641.92 1812.02,-644.37"/>
<text text-anchor="middle" x="1790.5" y="-621.5" font-family="Arial" font-size="10.00" fill="#0d4c84">812176×</text>
</g>
<!-- 25&#45;&gt;7 -->
<g id="edge45" class="edge">
<title>25&#45;&gt;7</title>
<path fill="none" stroke="#0d3b80" stroke-width="0.5" d="M1147.12,-551.93C1148.74,-540.71 1150.66,-527.42 1152.34,-515.8"/>
<polygon fill="#0d3b80" stroke="#0d3b80" stroke-width="0.5" points="1153.57,-515.89 1152.85,-512.25 1151.14,-515.54 1153.57,-515.89"/>
<text text-anchor="middle" x="1171.5" y="-535" font-family="Arial" font-size="10.00" fill="#0d3b80">10.03%</text>
<text text-anchor="middle" x="1171.5" y="-524" font-family="Arial" font-size="10.00" fill="#0d3b80">947906×</text>
</g>
<!-- 25&#45;&gt;18 -->
<g id="edge47" class="edge">
<title>25&#45;&gt;18</title>
<path fill="none" stroke="#0d1a77" stroke-width="0.5" d="M1516.17,-551.99C1537.97,-549.29 1559.55,-546.3 1580.5,-543 1627.26,-535.63 1678.47,-523.82 1721.03,-512.93"/>
<polygon fill="#0d1a77" stroke="#0d1a77" stroke-width="0.5" points="1721.51,-514.07 1724.6,-512.02 1720.9,-511.7 1721.51,-514.07"/>
<text text-anchor="middle" x="1703.5" y="-535" font-family="Arial" font-size="10.00" fill="#0d1a77">3.08%</text>
<text text-anchor="middle" x="1703.5" y="-524" font-family="Arial" font-size="10.00" fill="#0d1a77">213416×</text>
</g>
<!-- 19 -->
<g id="node24" class="node">
<title>19</title>
<polygon fill="#0c6489" stroke="#0c6489" points="1887,-420 1538,-420 1538,-368 1887,-368 1887,-420"/>
<text text-anchor="middle" x="1712.5" y="-408" font-family="Arial" font-size="10.00" fill="#ffffff">Shaft::doCulling(java::ArrayList&lt;Geometry*&gt;*, java::ArrayList&lt;Geometry*&gt;*)</text>
<text text-anchor="middle" x="1712.5" y="-397" font-family="Arial" font-size="10.00" fill="#ffffff">17.44%</text>
<text text-anchor="middle" x="1712.5" y="-386" font-family="Arial" font-size="10.00" fill="#ffffff">(0.21%)</text>
<text text-anchor="middle" x="1712.5" y="-375" font-family="Arial" font-size="10.00" fill="#ffffff">948430×</text>
</g>
<!-- 18&#45;&gt;19 -->
<g id="edge33" class="edge">
<title>18&#45;&gt;19</title>
<path fill="none" stroke="#0c6489" stroke-width="0.7" d="M1786.09,-459.93C1773.15,-448.52 1757.79,-434.96 1744.46,-423.2"/>
<polygon fill="#0c6489" stroke="#0c6489" stroke-width="0.7" points="1745.24,-421.92 1741.11,-420.25 1743.29,-424.13 1745.24,-421.92"/>
<text text-anchor="middle" x="1795.5" y="-443" font-family="Arial" font-size="10.00" fill="#0c6489">17.44%</text>
<text text-anchor="middle" x="1795.5" y="-432" font-family="Arial" font-size="10.00" fill="#0c6489">948430×</text>
</g>
<!-- 20 -->
<g id="node25" class="node">
<title>20</title>
<polygon fill="#0c6089" stroke="#0c6089" points="2034.5,-328 1742.5,-328 1742.5,-276 2034.5,-276 2034.5,-328"/>
<text text-anchor="middle" x="1888.5" y="-316" font-family="Arial" font-size="10.00" fill="#ffffff">Shaft::shaftCullOpen(Geometry*, java::ArrayList&lt;Geometry*&gt;*)</text>
<text text-anchor="middle" x="1888.5" y="-305" font-family="Arial" font-size="10.00" fill="#ffffff">16.82%</text>
<text text-anchor="middle" x="1888.5" y="-294" font-family="Arial" font-size="10.00" fill="#ffffff">(1.05%)</text>
<text text-anchor="middle" x="1888.5" y="-283" font-family="Arial" font-size="10.00" fill="#ffffff">41085378×</text>
</g>
<!-- 18&#45;&gt;20 -->
<g id="edge34" class="edge">
<title>18&#45;&gt;20</title>
<path fill="none" stroke="#0d0e73" stroke-width="0.5" d="M1856.81,-459.99C1870.5,-449.52 1884.06,-436.02 1891.5,-420 1904.47,-392.07 1901.03,-356.21 1896.07,-331.59"/>
<polygon fill="#0d0e73" stroke="#0d0e73" stroke-width="0.5" points="1897.24,-331.22 1895.33,-328.04 1894.85,-331.72 1897.24,-331.22"/>
<text text-anchor="middle" x="1920.5" y="-397" font-family="Arial" font-size="10.00" fill="#0d0e73">0.35%</text>
<text text-anchor="middle" x="1920.5" y="-386" font-family="Arial" font-size="10.00" fill="#0d0e73">303869×</text>
</g>
<!-- 16 -->
<g id="node23" class="node">
<title>16</title>
<polygon fill="#0c6f8c" stroke="#0c6f8c" points="3559,-420 3150,-420 3150,-368 3559,-368 3559,-420"/>
<text text-anchor="middle" x="3354.5" y="-408" font-family="Arial" font-size="10.00" fill="#ffffff">ClusterTraversalStrategy::leafMaxRadiance(GalerkinElement*, GalerkinState*, ColorRgb*)</text>
<text text-anchor="middle" x="3354.5" y="-397" font-family="Arial" font-size="10.00" fill="#ffffff">19.37%</text>
<text text-anchor="middle" x="3354.5" y="-386" font-family="Arial" font-size="10.00" fill="#ffffff">(19.15%)</text>
<text text-anchor="middle" x="3354.5" y="-375" font-family="Arial" font-size="10.00" fill="#ffffff">376471105×</text>
</g>
<!-- 14&#45;&gt;16 -->
<g id="edge25" class="edge">
<title>14&#45;&gt;16</title>
<path fill="none" stroke="#0c6f8c" stroke-width="0.77" d="M3354.5,-459.93C3354.5,-449 3354.5,-436.11 3354.5,-424.7"/>
<polygon fill="#0c6f8c" stroke="#0c6f8c" stroke-width="0.77" points="3356.04,-424.65 3354.5,-420.25 3352.96,-424.65 3356.04,-424.65"/>
<text text-anchor="middle" x="3379" y="-443" font-family="Arial" font-size="10.00" fill="#0c6f8c">19.37%</text>
<text text-anchor="middle" x="3379" y="-432" font-family="Arial" font-size="10.00" fill="#0c6f8c">28287221×</text>
</g>
<!-- 16&#45;&gt;16 -->
<g id="edge29" class="edge">
<title>16&#45;&gt;16</title>
<path fill="none" stroke="#0c6f8c" stroke-width="0.77" d="M3559.29,-398.36C3564.86,-397.16 3568,-395.71 3568,-394 3568,-392.83 3566.52,-391.77 3563.78,-390.84"/>
<polygon fill="#0c6f8c" stroke="#0c6f8c" stroke-width="0.77" points="3563.94,-389.29 3559.29,-389.64 3563.14,-392.26 3563.94,-389.29"/>
<text text-anchor="middle" x="3595" y="-391.5" font-family="Arial" font-size="10.00" fill="#0c6f8c">348183884×</text>
</g>
<!-- 19&#45;&gt;20 -->
<g id="edge35" class="edge">
<title>19&#45;&gt;20</title>
<path fill="none" stroke="#0c5e88" stroke-width="0.66" d="M1761.53,-367.93C1784.6,-356.13 1812.16,-342.04 1835.69,-330"/>
<polygon fill="#0c5e88" stroke="#0c5e88" stroke-width="0.66" points="1836.44,-331.24 1839.43,-328.09 1835.13,-328.68 1836.44,-331.24"/>
<text text-anchor="middle" x="1846" y="-351" font-family="Arial" font-size="10.00" fill="#0c5e88">16.47%</text>
<text text-anchor="middle" x="1846" y="-340" font-family="Arial" font-size="10.00" fill="#0c5e88">14330964×</text>
</g>
<!-- 28 -->
<g id="node26" class="node">
<title>28</title>
<polygon fill="#0d1a77" stroke="#0d1a77" points="1858.5,-144 1670.5,-144 1670.5,-92 1858.5,-92 1858.5,-144"/>
<text text-anchor="middle" x="1764.5" y="-132" font-family="Arial" font-size="10.00" fill="#ffffff">Shaft::boundingBoxTest(BoundingBox*)</text>
<text text-anchor="middle" x="1764.5" y="-121" font-family="Arial" font-size="10.00" fill="#ffffff">3.13%</text>
<text text-anchor="middle" x="1764.5" y="-110" font-family="Arial" font-size="10.00" fill="#ffffff">(3.13%)</text>
<text text-anchor="middle" x="1764.5" y="-99" font-family="Arial" font-size="10.00" fill="#ffffff">292191468×</text>
</g>
<!-- 19&#45;&gt;28 -->
<g id="edge36" class="edge">
<title>19&#45;&gt;28</title>
<path fill="none" stroke="#0d0f73" stroke-width="0.5" d="M1715,-367.98C1718.15,-338.44 1724.18,-287.89 1732.5,-245 1739.01,-211.42 1749.03,-173.44 1756.12,-148.04"/>
<polygon fill="#0d0f73" stroke="#0d0f73" stroke-width="0.5" points="1757.38,-148.09 1757.14,-144.39 1755.02,-147.43 1757.38,-148.09"/>
<text text-anchor="middle" x="1757" y="-259" font-family="Arial" font-size="10.00" fill="#0d0f73">0.53%</text>
<text text-anchor="middle" x="1757" y="-248" font-family="Arial" font-size="10.00" fill="#0d0f73">49483075×</text>
</g>
<!-- 20&#45;&gt;20 -->
<g id="edge37" class="edge">
<title>20&#45;&gt;20</title>
<path fill="none" stroke="#0c6089" stroke-width="0.67" d="M2034.76,-307C2040.31,-305.69 2043.5,-304.02 2043.5,-302 2043.5,-300.55 2041.85,-299.28 2038.86,-298.19"/>
<polygon fill="#0c6089" stroke="#0c6089" stroke-width="0.67" points="2039.1,-296.77 2034.76,-297 2038.3,-299.52 2039.1,-296.77"/>
<text text-anchor="middle" x="2068" y="-299.5" font-family="Arial" font-size="10.00" fill="#0c6089">26450545×</text>
</g>
<!-- 20&#45;&gt;28 -->
<g id="edge39" class="edge">
<title>20&#45;&gt;28</title>
<path fill="none" stroke="#0d0f73" stroke-width="0.5" d="M1822.14,-275.89C1804.58,-266.07 1787.48,-253 1776.5,-236 1759.6,-209.84 1758.58,-173.33 1760.51,-148.08"/>
<polygon fill="#0d0f73" stroke="#0d0f73" stroke-width="0.5" points="1761.75,-148.03 1760.82,-144.44 1759.3,-147.83 1761.75,-148.03"/>
<text text-anchor="middle" x="1801" y="-213" font-family="Arial" font-size="10.00" fill="#0d0f73">0.52%</text>
<text text-anchor="middle" x="1801" y="-202" font-family="Arial" font-size="10.00" fill="#0d0f73">48393033×</text>
</g>
<!-- 24 -->
<g id="node27" class="node">
<title>24</title>
<polygon fill="#0d4e84" stroke="#0d4e84" points="2041,-236 1830,-236 1830,-184 2041,-184 2041,-236"/>
<text text-anchor="middle" x="1935.5" y="-224" font-family="Arial" font-size="10.00" fill="#ffffff">Shaft::cullPatches(java::ArrayList&lt;Patch*&gt;*)</text>
<text text-anchor="middle" x="1935.5" y="-213" font-family="Arial" font-size="10.00" fill="#ffffff">13.72%</text>
<text text-anchor="middle" x="1935.5" y="-202" font-family="Arial" font-size="10.00" fill="#ffffff">(3.00%)</text>
<text text-anchor="middle" x="1935.5" y="-191" font-family="Arial" font-size="10.00" fill="#ffffff">24457607×</text>
</g>
<!-- 20&#45;&gt;24 -->
<g id="edge38" class="edge">
<title>20&#45;&gt;24</title>
<path fill="none" stroke="#0d4e84" stroke-width="0.55" d="M1901.59,-275.93C1907.45,-264.71 1914.39,-251.42 1920.46,-239.8"/>
<polygon fill="#0d4e84" stroke="#0d4e84" stroke-width="0.55" points="1921.75,-240.13 1922.32,-236.25 1919.45,-238.93 1921.75,-240.13"/>
<text text-anchor="middle" x="1943" y="-259" font-family="Arial" font-size="10.00" fill="#0d4e84">13.72%</text>
<text text-anchor="middle" x="1943" y="-248" font-family="Arial" font-size="10.00" fill="#0d4e84">24457607×</text>
</g>
<!-- 24&#45;&gt;28 -->
<g id="edge44" class="edge">
<title>24&#45;&gt;28</title>
<path fill="none" stroke="#0d1575" stroke-width="0.5" d="M1887.87,-183.93C1865.36,-172.08 1838.45,-157.92 1815.53,-145.86"/>
<polygon fill="#0d1575" stroke="#0d1575" stroke-width="0.5" points="1815.84,-144.64 1812.17,-144.09 1814.7,-146.81 1815.84,-144.64"/>
<text text-anchor="middle" x="1897" y="-167" font-family="Arial" font-size="10.00" fill="#0d1575">2.08%</text>
<text text-anchor="middle" x="1897" y="-156" font-family="Arial" font-size="10.00" fill="#0d1575">194011476×</text>
</g>
<!-- 26 -->
<g id="node29" class="node">
<title>26</title>
<polygon fill="#0d317d" stroke="#0d317d" points="2015,-144 1868,-144 1868,-92 2015,-92 2015,-144"/>
<text text-anchor="middle" x="1941.5" y="-132" font-family="Arial" font-size="10.00" fill="#ffffff">Shaft::shaftPatchTest(Patch*)</text>
<text text-anchor="middle" x="1941.5" y="-121" font-family="Arial" font-size="10.00" fill="#ffffff">8.15%</text>
<text text-anchor="middle" x="1941.5" y="-110" font-family="Arial" font-size="10.00" fill="#ffffff">(8.10%)</text>
<text text-anchor="middle" x="1941.5" y="-99" font-family="Arial" font-size="10.00" fill="#ffffff">106232179×</text>
</g>
<!-- 24&#45;&gt;26 -->
<g id="edge43" class="edge">
<title>24&#45;&gt;26</title>
<path fill="none" stroke="#0d317d" stroke-width="0.5" d="M1937.17,-183.93C1937.92,-172.71 1938.81,-159.42 1939.58,-147.8"/>
<polygon fill="#0d317d" stroke="#0d317d" stroke-width="0.5" points="1940.81,-147.82 1939.82,-144.25 1938.36,-147.66 1940.81,-147.82"/>
<text text-anchor="middle" x="1966.5" y="-167" font-family="Arial" font-size="10.00" fill="#0d317d">8.15%</text>
<text text-anchor="middle" x="1966.5" y="-156" font-family="Arial" font-size="10.00" fill="#0d317d">106232179×</text>
</g>
</g>
</svg>
